<?xml version="1.0" encoding="iso-8859-1"?>
<!-- Generator: Adobe Illustrator 24.0.3, SVG Export Plug-In . SVG Version: 6.00 Build 0)  -->
<svg version="1.1" xmlns="http://www.w3.org/2000/svg" xmlns:xlink="http://www.w3.org/1999/xlink" x="0px" y="0px"
	 viewBox="0 0 64 64" style="enable-background:new 0 0 64 64;" xml:space="preserve">
<g id="Investing">
	<path style="fill:#57A7FF;" d="M1.668,25.385V14.051c3.927-0.348,7.114-3.296,7.827-7.108h34.082
		c0.744,3.975,4.178,7.006,8.335,7.134v5.871h1.668V6.109c0-0.461-0.373-0.834-0.834-0.834H0.834C0.373,5.275,0,5.648,0,6.109
		v27.368c0,0.461,0.373,0.834,0.834,0.834h33.721v-1.668H9.518C8.861,28.759,5.646,25.738,1.668,25.385z M51.912,12.409
		c-3.235-0.123-5.917-2.416-6.63-5.466h6.63V12.409z M7.79,6.943c-0.675,2.889-3.117,5.105-6.122,5.435V6.943H7.79z M1.668,27.059
		c3.058,0.336,5.537,2.622,6.161,5.585H1.668V27.059z M16.047,19.793c0,5.924,4.819,10.743,10.743,10.743
		s10.743-4.819,10.743-10.743S32.714,9.05,26.79,9.05S16.047,13.87,16.047,19.793z M35.865,19.793c0,5.004-4.071,9.075-9.075,9.075
		s-9.075-4.071-9.075-9.075c0-5.004,4.071-9.075,9.075-9.075S35.865,14.789,35.865,19.793z M27.37,13.396v1.218h1.196
		c1.02,0,1.85,0.83,1.85,1.85v1.694h-1.668v-1.694c0-0.1-0.081-0.182-0.182-0.182h-3.804c-0.1,0-0.182,0.082-0.182,0.182v1.287
		c0,0.066,0.037,0.128,0.095,0.16l4.777,2.611c0.594,0.324,0.963,0.946,0.963,1.623v1.287c0,1.02-0.83,1.85-1.85,1.85h-1.068V26.5
		H25.83v-1.218h-1.069c-1.02,0-1.85-0.83-1.85-1.85v-1.186h1.668v1.186c0,0.1,0.081,0.182,0.182,0.182h3.804
		c0.1,0,0.182-0.081,0.182-0.182v-1.287c0-0.066-0.036-0.128-0.094-0.16l-4.778-2.612c-0.594-0.325-0.963-0.947-0.963-1.623v-1.287
		c0-1.02,0.83-1.85,1.85-1.85h0.941v-1.218H27.37z M50.244,21.461c-7.586,0-13.756,6.171-13.756,13.756
		c0,11.545,12.666,22.826,13.205,23.3c0.158,0.139,0.354,0.208,0.551,0.208c0.197,0,0.393-0.069,0.551-0.208
		C51.335,58.042,64,46.761,64,35.217C64,27.631,57.829,21.461,50.244,21.461z M50.244,56.755
		c-2.434-2.308-12.089-12.063-12.089-21.538c0-6.665,5.423-12.088,12.089-12.088s12.088,5.423,12.088,12.088
		C62.332,44.692,52.679,54.447,50.244,56.755z M50.244,25.327c-5.453,0-9.89,4.437-9.89,9.89s4.436,9.89,9.89,9.89
		s9.89-4.437,9.89-9.89S55.698,25.327,50.244,25.327z M50.244,43.438c-4.533,0-8.222-3.688-8.222-8.222s3.689-8.222,8.222-8.222
		s8.222,3.688,8.222,8.222S54.777,43.438,50.244,43.438z"/>
	<path style="fill:#ffff;" d="M51.916,6.943v5.463c-3.236-0.117-5.921-2.41-6.63-5.463H51.916z M1.669,27.059v5.588h6.163
		C7.207,29.677,4.73,27.392,1.669,27.059z M1.669,6.943v5.438c3.002-0.334,5.446-2.552,6.121-5.438H1.669z M35.862,19.795
		c0,5.004-4.07,9.074-9.074,9.074s-9.074-4.07-9.074-9.074s4.07-9.074,9.074-9.074S35.862,14.791,35.862,19.795z M30.416,16.467
		c0-1.026-0.834-1.851-1.851-1.851h-1.193v-1.218h-1.668v1.218h-0.942c-1.017,0-1.851,0.826-1.851,1.851v1.284
		c0,0.676,0.367,1.301,0.967,1.626l4.779,2.61c0.058,0.033,0.092,0.092,0.092,0.158v1.284c0,0.1-0.083,0.183-0.184,0.183h-3.803
		c-0.1,0-0.183-0.083-0.183-0.183v-1.184H22.91v1.184c0,1.017,0.834,1.851,1.851,1.851h1.068V26.5h1.668v-1.218h1.067
		c1.017,0,1.851-0.834,1.851-1.851v-1.284c0-0.676-0.367-1.301-0.967-1.626l-4.77-2.61c-0.058-0.033-0.1-0.092-0.1-0.158v-1.284
		c0-0.1,0.083-0.183,0.183-0.183h3.803c0.1,0,0.184,0.083,0.184,0.183v1.693h1.668V16.467z M62.332,35.215
		c0,9.474-9.657,19.231-12.084,21.542c-2.435-2.31-12.093-12.068-12.093-21.542c0-6.663,5.421-12.084,12.093-12.084
		C56.911,23.131,62.332,28.551,62.332,35.215z M60.13,35.215c0-5.454-4.437-9.891-9.883-9.891c-5.454,0-9.891,4.437-9.891,9.891
		c0,5.454,4.437,9.891,9.891,9.891C55.694,45.106,60.13,40.669,60.13,35.215z"/>
</g>
<g id="Layer_1">
</g>
</svg>
