<svg xmlns="http://www.w3.org/2000/svg" viewBox="0 0 48 48"><defs><style>.cls-1{fill:#42a5f5;}.cls-2{fill:#fff;}</style></defs><title>Return User</title><g id="Return_User" data-name="Return User"><path class="cls-1" d="M38,12.3V4a4,4,0,0,0-4-4H4A4,4,0,0,0,0,4V44a4,4,0,0,0,4,4H34a4,4,0,0,0,4-4V41.7A14.58,14.58,0,0,1,36,42v2a2,2,0,0,1-2,2H4a2,2,0,0,1-2-2V8H36v4A14.58,14.58,0,0,1,38,12.3ZM5,5A1,1,0,0,1,5,3,1,1,0,0,1,5,5ZM9,5A1,1,0,0,1,9,3,1,1,0,0,1,9,5Zm4,0a1,1,0,0,1,0-2A1,1,0,0,1,13,5Z"/><path class="cls-2" d="M13,26a1,1,0,0,1-1-1V24H5a1,1,0,0,1-1-1V19a1,1,0,0,1,1-1h7c0-.78-.16-1.52.53-1.88a1,1,0,0,1,1,.05l6,4a1,1,0,0,1,0,1.66C13.08,26.15,13.43,26,13,26ZM6,22h7a1,1,0,0,1,1,1c0,.2-.4.4,3.2-2-3.68-2.45-3.2-2.19-3.2-2a1,1,0,0,1-1,1H6Z"/><path class="cls-2" d="M11,38c-.43,0-.1.13-6.55-4.17a1,1,0,0,1,0-1.66l6-4a1,1,0,0,1,1-.05c.6.32.53.79.53,1.88h7a1,1,0,0,1,1,1v4a1,1,0,0,1-1,1H12v1A1,1,0,0,1,11,38ZM6.8,33c3.68,2.45,3.2,2.19,3.2,2a1,1,0,0,1,1-1h7V32H11a1,1,0,0,1-1-1.13Z"/><path class="cls-2" d="M35,40A13,13,0,1,1,48,27,13,13,0,0,1,35,40Zm0-24A11,11,0,1,0,46,27,11,11,0,0,0,35,16Z"/><path class="cls-1" d="M42.86,31.37a9,9,0,0,1-15.72,0c.54-1.77,2-2,3.39-2.38a6,6,0,0,0,8.94,0C40.81,29.38,42.32,29.6,42.86,31.37Z"/><path class="cls-1" d="M35,29a4,4,0,0,1-4-4V23a4,4,0,0,1,8,0v2A4,4,0,0,1,35,29Z"/></g></svg>