<?xml version="1.0" encoding="iso-8859-1"?>
<!-- Generator: Adobe Illustrator 24.0.3, SVG Export Plug-In . SVG Version: 6.00 Build 0)  -->
<svg version="1.1" xmlns="http://www.w3.org/2000/svg" xmlns:xlink="http://www.w3.org/1999/xlink" x="0px" y="0px"
	 viewBox="0 0 64 64" style="enable-background:new 0 0 64 64;" xml:space="preserve">
<g id="ngo">
	<path style="fill:#57A7FF;" d="M63.706,31.321C62.85,14.574,48.956,1.212,31.999,1.212c-16.958,0-30.852,13.363-31.707,30.112
		C0.104,31.918,0,32.55,0,33.205v5.786c0,3.423,2.784,6.207,6.207,6.207h0.702c3.729,10.249,13.568,17.589,25.091,17.589
		c4.039,0,7.918-0.879,11.53-2.612l-0.968-2.016c-3.307,1.587-6.861,2.392-10.562,2.392c-13.484,0-24.454-10.97-24.454-24.453
		c0-13.484,10.97-24.454,24.454-24.454s24.454,10.97,24.454,24.454c0,5.656-1.977,11.173-5.567,15.533l1.728,1.422
		c1.942-2.359,3.448-5.029,4.477-7.873v0.018h0.702c0.367,0,0.725-0.038,1.075-0.1v1.717c0,4.293-3.494,7.786-7.787,7.786h-9.13
		c0.214-0.475,0.34-0.997,0.34-1.551v-0.733c0-2.088-1.698-3.788-3.787-3.788h-6.38c-2.088,0-3.787,1.699-3.787,3.788v0.733
		c0,2.088,1.698,3.788,3.787,3.788h6.38c0.064,0,0.124-0.016,0.187-0.019v0.019h12.39c5.527,0,10.024-4.496,10.024-10.023v-2.584
		C62.841,43.131,64,41.196,64,38.992v-5.786C64,32.548,63.896,31.916,63.706,31.321z M32.124,54.602c-0.854,0-1.55-0.696-1.55-1.551
		v-0.733c0-0.855,0.696-1.551,1.55-1.551h6.38c0.854,0,1.55,0.696,1.55,1.551v0.733c0,0.855-0.696,1.551-1.55,1.551H32.124z
		 M6.207,42.962c-2.189,0-3.97-1.781-3.97-3.97v-5.786c0-0.084,0.02-0.162,0.025-0.245h0.226c0-0.402,0.014-0.801,0.03-1.2
		c0.58-1.475,2.01-2.526,3.688-2.526h0.001c-0.584,2.191-0.899,4.491-0.899,6.863c0,2.373,0.315,4.672,0.899,6.863H6.207z
		 M31.999,9.408c-11.523,0-21.362,7.341-25.091,17.59H6.207c-1.207,0-2.33,0.351-3.284,0.95C5.311,14.056,17.436,3.449,31.999,3.449
		c14.563,0,26.688,10.607,29.077,24.498c-0.954-0.598-2.077-0.949-3.283-0.949h-0.702V27C53.362,16.749,43.523,9.408,31.999,9.408z
		 M61.763,38.992c0,2.189-1.781,3.97-3.97,3.97h-0.005c0.593-2.226,0.902-4.534,0.902-6.863c0-2.372-0.315-4.672-0.899-6.863h0.002
		c1.677,0,3.106,1.049,3.687,2.522c0.016,0.4,0.031,0.8,0.031,1.204h0.228c0.005,0.083,0.025,0.161,0.025,0.245V38.992z
		 M18.028,32.961c0,2.385,1.94,4.326,4.325,4.326s4.326-1.941,4.326-4.326s-1.941-4.325-4.326-4.325S18.028,30.575,18.028,32.961z
		 M24.443,32.961c0,1.152-0.937,2.089-2.089,2.089c-1.151,0-2.088-0.937-2.088-2.089c0-1.151,0.937-2.088,2.088-2.088
		C23.506,30.872,24.443,31.809,24.443,32.961z M45.692,32.961c0-2.385-1.941-4.325-4.326-4.325s-4.325,1.94-4.325,4.325
		s1.94,4.326,4.325,4.326S45.692,35.346,45.692,32.961z M39.278,32.961c0-1.151,0.937-2.088,2.088-2.088
		c1.152,0,2.089,0.937,2.089,2.088c0,1.152-0.937,2.089-2.089,2.089C40.215,35.05,39.278,34.113,39.278,32.961z"/>
	<path style="fill:#E0E2EA;" d="M61.763,33.205v5.782c0,2.192-1.778,3.97-3.97,3.97c0.593-2.226,0.895-4.529,0.895-6.856
		c0-2.371-0.313-4.675-0.895-6.867c0.839,0,1.61,0.257,2.259,0.705c0.637,0.447,1.141,1.085,1.432,1.823
		c0.011,0.391,0.022,0.794,0.022,1.197h0.235C61.74,33.048,61.763,33.126,61.763,33.205z M38.5,50.763h-6.375
		c-0.861,0-1.555,0.705-1.555,1.554v0.738c0,0.85,0.693,1.543,1.555,1.543H38.5c0.861,0,1.555-0.693,1.555-1.543v-0.738
		C40.055,51.468,39.362,50.763,38.5,50.763z M41.364,30.867c-1.152,0-2.091,0.939-2.091,2.091c0,1.152,0.939,2.091,2.091,2.091
		c1.152,0,2.091-0.939,2.091-2.091C43.455,31.807,42.515,30.867,41.364,30.867z M22.351,30.867c-1.152,0-2.091,0.939-2.091,2.091
		c0,1.152,0.939,2.091,2.091,2.091c1.152,0,2.091-0.939,2.091-2.091C24.442,31.807,23.503,30.867,22.351,30.867z M6.213,29.234
		H6.202c-1.678,0-3.098,1.051-3.679,2.527c-0.022,0.403-0.034,0.794-0.034,1.197H2.265c-0.011,0.089-0.034,0.168-0.034,0.246v5.782
		c0,2.192,1.789,3.97,3.97,3.97h0.011c-0.593-2.192-0.906-4.485-0.906-6.856C5.307,33.73,5.62,31.426,6.213,29.234z"/>
</g>
<g id="Layer_1">
</g>
</svg>
