<?xml version="1.0" encoding="iso-8859-1"?>
<!-- Generator: Adobe Illustrator 24.0.3, SVG Export Plug-In . SVG Version: 6.00 Build 0)  -->
<svg version="1.1" xmlns="http://www.w3.org/2000/svg" xmlns:xlink="http://www.w3.org/1999/xlink" x="0px" y="0px"
	 viewBox="0 0 64 64" style="enable-background:new 0 0 64 64;" xml:space="preserve">
<g id="funding">
	<path style="fill:#ffff;" d="M39.206,2.075c-8.262,0-14.997,6.735-14.997,14.997c0,8.273,6.735,14.997,14.997,14.997
		c8.273,0,14.997-6.724,14.997-14.997C54.203,8.809,47.479,2.075,39.206,2.075z M60.855,37.992
		c-3.108,3.887-17.793,16.442-20.786,17.637c-3.118,1.237-9.884-0.956-13.521-2.141c-1.632-0.53-2.505-0.8-3.045-0.863
		c-1.413-0.146-2.754,0.717-3.606,1.434l-8.533-10.466c0.468-0.374,1.06-0.873,1.85-1.528c0.894-0.759,1.902-1.611,2.868-2.39
		c1.403-1.06,4.105-2.796,6.548-2.546c0.925,0.104,4.053,1.112,6.579,1.923c3.107,0.998,5.061,1.621,5.882,1.704l6.922,0.717
		c1.341,0.135,2.318,1.341,2.182,2.671c-0.146,1.341-1.33,2.318-2.681,2.183l-11.546-1.195L29.759,47.2l11.536,1.195
		c0.156,0.01,0.312,0.021,0.468,0.021c2.286,0,4.251-1.736,4.5-4.053c0.021-0.249,0.01-0.488,0-0.728l6.953-3.502
		c0.135-0.073,0.26-0.177,0.353-0.301c1.694-2.193,3.596-2.577,4.885-2.525C59.504,37.348,60.356,37.691,60.855,37.992z"/>
	<path style="fill:#57A7FF;" d="M63.109,37.317c-0.541-0.911-2.281-1.951-4.439-2.083c-2.504-0.16-4.833,0.963-6.598,3.142
		l-6.427,3.238c-0.705-1.194-1.936-2.059-3.417-2.212l-6.924-0.716c-0.643-0.066-3.203-0.891-5.46-1.617
		c-3.538-1.139-5.936-1.893-6.995-2.003c-3.153-0.333-6.372,1.71-8.043,2.973c-1.003,0.815-2.026,1.673-2.928,2.429
		c-0.679,0.569-1.331,1.116-1.824,1.516l-0.825-1.013c-0.362-0.444-1.015-0.512-1.462-0.15l-6.637,5.395
		c-0.214,0.174-0.35,0.426-0.379,0.7c-0.027,0.275,0.055,0.549,0.228,0.763l12.992,15.936C14.177,63.87,14.475,64,14.778,64
		c0.23,0,0.462-0.076,0.655-0.233l6.637-5.395c0.214-0.174,0.35-0.426,0.379-0.7c0.027-0.275-0.055-0.549-0.228-0.763l-1.006-1.234
		c0.58-0.501,1.392-1.047,2.08-0.978c0.342,0.036,1.498,0.411,2.616,0.773c3.178,1.03,7.992,2.592,11.788,2.592
		c1.167,0,2.238-0.148,3.136-0.503c3.622-1.438,20.497-15.977,22.29-19.206C63.304,38.03,63.298,37.636,63.109,37.317z M14.927,61.5
		L3.248,47.174l5.023-4.084L19.95,57.416L14.927,61.5z M40.067,55.626c-3.119,1.239-9.882-0.955-13.516-2.133
		c-1.632-0.53-2.509-0.808-3.045-0.864c-1.421-0.147-2.758,0.716-3.606,1.434l-8.534-10.468c0.463-0.375,1.062-0.876,1.846-1.534
		c0.894-0.75,1.909-1.601,2.874-2.386c1.399-1.058,4.1-2.796,6.548-2.542c0.921,0.095,4.054,1.104,6.571,1.914
		c3.115,1.003,5.066,1.621,5.885,1.706l6.924,0.716c1.339,0.138,2.315,1.34,2.177,2.679c-0.137,1.339-1.327,2.319-2.679,2.178
		l-11.54-1.193l-0.213,2.067l11.54,1.193c0.157,0.016,0.313,0.024,0.468,0.024c2.285,0,4.253-1.734,4.493-4.056
		c0.025-0.248,0.016-0.49,0.001-0.731l6.952-3.502c0.138-0.07,0.26-0.17,0.354-0.293c1.699-2.196,3.596-2.582,4.884-2.533
		c1.054,0.046,1.901,0.386,2.4,0.69C57.746,41.883,43.059,54.438,40.067,55.626z M39.211,34.152c9.416,0,17.075-7.66,17.075-17.076
		C56.286,7.66,48.627,0,39.211,0S22.135,7.66,22.135,17.076C22.135,26.492,29.796,34.152,39.211,34.152z M39.211,2.079
		c8.27,0,14.997,6.727,14.997,14.997s-6.727,14.998-14.997,14.998s-14.998-6.728-14.998-14.998S30.942,2.079,39.211,2.079z
		 M35.929,25.82h2.243v0.96v1.543h2.079v-1.543v-0.96h2.242c1.54,0,2.793-1.252,2.793-2.792v-2.221c0-1.021-0.557-1.96-1.453-2.45
		l-3.582-1.958v-6.111h2.242c0.394,0,0.715,0.32,0.715,0.714v2.924h2.079v-2.924c0-1.54-1.253-2.793-2.793-2.793h-2.242V5.829
		h-2.079V8.21h-2.243c-1.54,0-2.792,1.253-2.792,2.793v2.221c0,1.022,0.556,1.96,1.452,2.45l3.583,1.958v6.11h-2.243
		c-0.394,0-0.713-0.32-0.713-0.713v-2.047h-2.079v2.047C33.137,24.567,34.389,25.82,35.929,25.82z M35.586,13.849
		c-0.228-0.125-0.37-0.365-0.37-0.626v-2.221c0-0.394,0.32-0.714,0.713-0.714h2.243v4.974L35.586,13.849z M40.251,18.767
		l2.585,1.413c0.229,0.125,0.371,0.365,0.371,0.626v2.221c0,0.393-0.321,0.713-0.715,0.713h-2.242V18.767z"/>
</g>
<g id="Layer_1">
</g>
</svg>
