<svg id="Layer_1" data-name="Layer 1" xmlns="http://www.w3.org/2000/svg" viewBox="0 0 48 48"><defs><style>.cls-1{fill:none;stroke:#000;stroke-linecap:round;stroke-linejoin:round;stroke-width:2px;}</style></defs><title>eye_1</title><path class="cls-1" d="M4,16c3,0,5,14,20,14S41,16,44,16"/><line class="cls-1" x1="24" y1="32" x2="24" y2="31"/><line class="cls-1" x1="27.87" y1="31.98" x2="28.37" y2="30.1"/><line class="cls-1" x1="35" y1="29" x2="34" y2="28"/><line class="cls-1" x1="32" y1="31" x2="32" y2="29"/><line class="cls-1" x1="38" y1="27" x2="37" y2="26"/><line class="cls-1" x1="40" y1="24" x2="39" y2="23"/><line class="cls-1" x1="20.13" y1="31.98" x2="19.63" y2="30.1"/><line class="cls-1" x1="13" y1="29" x2="14" y2="28"/><line class="cls-1" x1="16" y1="31" x2="16" y2="29"/><line class="cls-1" x1="10" y1="27" x2="11" y2="26"/><line class="cls-1" x1="8" y1="24" x2="9" y2="23"/><line class="cls-1" x1="7" y1="18" x2="41" y2="18"/><rect class="cls-1" x="-564" y="-496" width="700" height="700"/></svg>