<?xml version="1.0" encoding="iso-8859-1"?>
<!-- Generator: Adobe Illustrator 24.0.3, SVG Export Plug-In . SVG Version: 6.00 Build 0)  -->
<svg version="1.1" xmlns="http://www.w3.org/2000/svg" xmlns:xlink="http://www.w3.org/1999/xlink" x="0px" y="0px"
	 viewBox="0 0 64 64" style="enable-background:new 0 0 64 64;" xml:space="preserve">
<g id="online-meeting">
	<path style="fill:#57A7FF;" d="M63.223,45.597h-3.252V15.826c0-3.074-2.486-5.481-5.66-5.481H10.248
		c-3.069,0-5.212,2.254-5.212,5.481v29.771H0.777C0.348,45.597,0,45.945,0,46.374v1.058c0,3.431,2.791,6.222,6.222,6.222h52.077
		c3.143,0,5.701-2.557,5.701-5.7v-1.58C64,45.945,63.652,45.597,63.223,45.597z M6.59,15.826c0-2.385,1.436-3.927,3.658-3.927
		h44.063c2.303,0,4.106,1.725,4.106,3.927v29.771h-1.521V15.879c0-1.285-1.045-2.331-2.331-2.331H10.442
		c-1.285,0-2.331,1.045-2.331,2.331v29.718H6.59V15.826z M49.683,45.597h-9.801v-1.778c0-1.023,0.832-1.855,1.855-1.855h6.092
		c1.023,0,1.855,0.832,1.855,1.855V45.597z M47.828,40.41h-1.64c1.475-0.568,2.529-1.991,2.529-3.664
		c0-2.17-1.765-3.935-3.935-3.935c-2.17,0-3.935,1.765-3.935,3.935c0,1.673,1.054,3.096,2.529,3.664h-1.64
		c-1.879,0-3.408,1.53-3.408,3.409v1.778h-5.551V31.904h22.566v13.693h-4.106v-1.778C51.236,41.939,49.707,40.41,47.828,40.41z
		 M44.782,39.127c-1.313,0-2.381-1.068-2.381-2.381c0-1.313,1.068-2.381,2.381-2.381c1.313,0,2.381,1.068,2.381,2.381
		C47.163,38.059,46.095,39.127,44.782,39.127z M25.598,45.597h-9.801v-1.778c0-1.023,0.832-1.855,1.855-1.855h6.092
		c1.023,0,1.855,0.832,1.855,1.855V45.597z M23.744,40.41h-1.64c1.475-0.568,2.529-1.991,2.529-3.664
		c0-2.17-1.765-3.935-3.935-3.935s-3.935,1.765-3.935,3.935c0,1.673,1.054,3.096,2.529,3.664h-1.64c-1.879,0-3.408,1.53-3.408,3.409
		v1.778H9.665V31.904h21.558v13.693h-4.071v-1.778C27.152,41.939,25.623,40.41,23.744,40.41z M20.698,39.127
		c-1.313,0-2.381-1.068-2.381-2.381c0-1.313,1.068-2.381,2.381-2.381c1.313,0,2.381,1.068,2.381,2.381
		C23.079,38.059,22.011,39.127,20.698,39.127z M55.342,30.35h-4.106v-1.293c0-1.879-1.529-3.409-3.408-3.409h-1.64
		c1.475-0.568,2.529-1.991,2.529-3.664c0-2.17-1.765-3.935-3.935-3.935c-2.17,0-3.935,1.765-3.935,3.935
		c0,1.673,1.054,3.096,2.529,3.664h-1.64c-1.879,0-3.408,1.53-3.408,3.409v1.293h-5.551V15.103h21.789
		c0.428,0,0.777,0.348,0.777,0.777V30.35z M49.683,30.35h-9.801v-1.293c0-1.023,0.832-1.855,1.855-1.855h6.092
		c1.023,0,1.855,0.832,1.855,1.855V30.35z M44.782,24.366c-1.313,0-2.381-1.068-2.381-2.381s1.068-2.381,2.381-2.381
		c1.313,0,2.381,1.068,2.381,2.381S46.095,24.366,44.782,24.366z M31.223,30.35h-4.071v-1.293c0-1.879-1.529-3.409-3.408-3.409
		h-1.64c1.475-0.568,2.529-1.991,2.529-3.664c0-2.17-1.765-3.935-3.935-3.935s-3.935,1.765-3.935,3.935
		c0,1.673,1.054,3.096,2.529,3.664h-1.64c-1.879,0-3.408,1.53-3.408,3.409v1.293H9.665V15.879c0-0.429,0.349-0.777,0.777-0.777
		h20.781V30.35z M25.598,30.35h-9.801v-1.293c0-1.023,0.832-1.855,1.855-1.855h6.092c1.023,0,1.855,0.832,1.855,1.855V30.35z
		 M20.698,24.366c-1.313,0-2.381-1.068-2.381-2.381s1.068-2.381,2.381-2.381c1.313,0,2.381,1.068,2.381,2.381
		S22.011,24.366,20.698,24.366z M62.446,47.954c0,2.286-1.86,4.146-4.147,4.146H6.222c-2.574,0-4.668-2.094-4.668-4.668v-0.281
		h4.259h53.382h3.252V47.954z M25.829,48.849h11.079v1.554H25.829V48.849z"/>
	<path style="fill:#ffff;" d="M31.223,31.903V45.6h-4.071v-1.779c0-1.88-1.53-3.411-3.411-3.411h-1.639
		c1.476-0.567,2.533-1.989,2.533-3.667c0-2.168-1.764-3.931-3.939-3.931c-2.168,0-3.931,1.764-3.931,3.931
		c0,1.678,1.049,3.1,2.525,3.667H17.65c-1.88,0-3.411,1.531-3.411,3.411V45.6H9.664V31.903H31.223z M10.441,15.106
		c-0.427,0-0.777,0.342-0.777,0.777v14.466h4.576v-1.29c0-1.88,1.531-3.411,3.411-3.411h1.639c-1.476-0.567-2.525-1.989-2.525-3.667
		c0-2.168,1.764-3.931,3.931-3.931c2.175,0,3.939,1.764,3.939,3.931c0,1.678-1.057,3.1-2.533,3.667h1.639
		c1.88,0,3.411,1.531,3.411,3.411v1.29h4.071V15.106H10.441z M54.569,15.106H32.777v15.243h5.547v-1.29
		c0-1.88,1.531-3.411,3.411-3.411h1.639c-1.476-0.567-2.525-1.989-2.525-3.667c0-2.168,1.764-3.931,3.931-3.931
		c2.175,0,3.939,1.764,3.939,3.931c0,1.678-1.057,3.1-2.533,3.667h1.639c1.88,0,3.411,1.531,3.411,3.411v1.29h4.11V15.883
		C55.346,15.448,54.997,15.106,54.569,15.106z M32.777,31.903V45.6h5.547v-1.779c0-1.88,1.531-3.411,3.411-3.411h1.639
		c-1.476-0.567-2.525-1.989-2.525-3.667c0-2.168,1.764-3.931,3.931-3.931c2.175,0,3.939,1.764,3.939,3.931
		c0,1.678-1.057,3.1-2.533,3.667h1.639c1.88,0,3.411,1.531,3.411,3.411V45.6h4.11V31.903H32.777z M62.447,47.154v0.8
		c0,2.284-1.865,4.149-4.149,4.149H6.222c-2.572,0-4.669-2.098-4.669-4.669v-0.28H62.447z M36.91,48.848H25.831v1.554H36.91V48.848z
		"/>
</g>
<g id="Layer_1">
</g>
</svg>
