<svg xmlns="http://www.w3.org/2000/svg" viewBox="0 0 48 48"><defs><style>.cls-1{fill:#6fabe6;}.cls-2{fill:#82bcf4;}.cls-3{fill:#9dcc6b;}.cls-4{fill:#b5e08c;}.cls-5{fill:#374f68;}.cls-6{fill:#425b72;}.cls-7{fill:#2c435e;}</style></defs><title>Worldwide</title><g id="Worldwide"><circle class="cls-1" cx="24" cy="24" r="20"/><path class="cls-2" d="M24,4A20,20,0,0,0,7.59,12.59,19.85,19.85,0,0,1,19,9C35.24,9,44.55,27.3,35.41,40.41,51.4,29.27,43.57,4,24,4Z"/><path class="cls-3" d="M37,8.82V15a1,1,0,0,1-1,1H31a1,1,0,0,1-1-1v-2.5a1.5,1.5,0,0,0-3,0V13a1,1,0,0,1-1,1H23a3,3,0,0,1-3-3,1,1,0,0,0-1-1c-3.6,0-2.88.51-4-3.88A20,20,0,0,1,37,8.82Z"/><path class="cls-4" d="M37,8.82V15a1,1,0,0,1-1,1H34.21A19.66,19.66,0,0,0,30,12.28a1.48,1.48,0,0,0-2-1.16A20,20,0,0,0,15.78,9.26c0-.11.1.38-.78-3.11A19.93,19.93,0,0,1,37,8.82Z"/><path class="cls-3" d="M19,34a1,1,0,0,1-1,1H15a1,1,0,0,0-1,1v5.31A20,20,0,0,1,5.26,17H11a1,1,0,0,1,1,1v3a1,1,0,0,0,1,1h2a1,1,0,0,1,1,1v5.59c0,.55.15.56,2.71,3.12C19.08,32.08,19,32.31,19,34Z"/><path class="cls-3" d="M32,33H29c-3.45,0-4.11-5-1-5a2,2,0,0,0,2-2,3,3,0,0,1,3-3h.67a2,2,0,0,1,2,2,1,1,0,0,0,1,1H37C39.43,26,37.49,33,32,33Z"/><path class="cls-5" d="M43.47,19.46a18,18,0,0,0-.8-2.62c2.75-5.69,3.17-10.4,1-12.54-6.22-6.19-28.18,8.38-37.41,25C-.77,42,3.44,49.15,16.84,42.67a18,18,0,0,0,2.62.8C3.8,52-4,44.12,4.53,28.54c4-8,15.27-19.64,24-24C44.13-4,52,3.8,43.47,19.46Z"/><path class="cls-6" d="M14.22,15.72A60.56,60.56,0,0,1,27,6C33.2,2.66,38.37,1.69,41.71,3.2a4.15,4.15,0,0,1,3.1,3.1c1.29,2.88.74,7.13-1.6,12.19.09.32.19.64.26,1C55.43-2.4,35.41-6.1,14.22,15.72Z"/><path class="cls-7" d="M6.29,29.3a71.17,71.17,0,0,1,8.52-11.49,57.09,57.09,0,0,0-11,14.85C1.75,37,1,40.69,1.69,43.19a6,6,0,0,0,3.1,3.12c2.49.69,6.24-.06,10.55-2.14.54.21,1.09.38,1.64.54.81-.37,1.63-.78,2.48-1.24a18,18,0,0,1-2.62-.8C3.47,49.13-.79,42,6.29,29.3Z"/></g></svg>