<?xml version="1.0" encoding="iso-8859-1"?>
<!-- Generator: Adobe Illustrator 19.0.0, SVG Export Plug-In . SVG Version: 6.00 Build 0)  -->
<svg xmlns="http://www.w3.org/2000/svg" xmlns:xlink="http://www.w3.org/1999/xlink" version="1.1" id="Capa_1" x="0px" y="0px" viewBox="0 0 512 512" style="enable-background:new 0 0 512 512;" xml:space="preserve">
<path style="fill:#6EDCF9;" d="M406.823,209.766L406.823,209.766c-8.719-49.604-35.605-92.945-73.548-122.911l0.001-0.001  C199.699-17.171,7.485,78.122,7.485,244.831c0,105.909,81.83,192.703,185.716,200.608c34.348,2.613,68.751-3.501,99.941-17.962  c2.036-0.942,2.29-1.063,4.229-2.019c13.394-6.573,24.534-13.794,35.906-22.65l-0.001-0.001  c37.942-29.966,64.829-73.308,73.548-122.911l0,0C410.713,258.086,411.042,233.425,406.823,209.766z"/>
<path style="fill:#37CAE2;" d="M342.591,394.968c-124.189,33.849-253.84-58.562-253.84-194.221  c0-59.686,25.99-113.297,67.268-150.143C70.445,73.75,7.485,151.933,7.485,244.831c0,105.909,81.83,192.703,185.716,200.608  c33.515,2.55,67.227-3.207,98.014-17.069c0.646-0.291,1.285-0.595,1.927-0.893c0.722-0.334,1.445-0.667,2.163-1.01  c0.692-0.33,1.379-0.67,2.066-1.009c13.588-6.667,24.755-13.966,35.906-22.65l-0.001-0.001  C336.462,400.289,339.565,397.67,342.591,394.968z"/>
<path style="fill:#F44B34;" d="M434.11,412.075l52.793,52.793c4.023,4.023,10.548,4.023,14.571,0c4.023-4.024,4.023-10.549,0-14.573  l-52.792-52.791C444.496,403.028,439.638,407.885,434.11,412.075z"/>
<circle style="fill:#F5F5F5;" cx="389.71" cy="353.268" r="64.005"/>
<path style="fill:#E3E5E5;" d="M359.11,353.271c0-29.569,20.057-54.442,47.303-61.789c-40.822-11.01-80.707,19.808-80.707,61.789  c0,35.35,28.656,64.005,64.005,64.005c5.78,0,11.376-0.779,16.702-2.216C379.168,407.712,359.11,382.84,359.11,353.271z"/>
<path style="fill:#F95C4B;" d="M442.898,406.291c-29.326,29.326-77.045,29.326-106.372,0c-29.327-29.328-29.327-77.046,0-106.373  c29.327-29.326,77.046-29.326,106.372,0C472.225,329.245,472.225,376.963,442.898,406.291z M351.097,314.49  c-21.293,21.292-21.293,55.936,0,77.228c21.293,21.293,55.936,21.293,77.228,0c21.292-21.292,21.292-55.936,0-77.228  C407.034,293.198,372.39,293.198,351.097,314.49z"/>
<path style="fill:#F44B34;" d="M357.027,299.918c12.056-12.056,27.22-19.145,42.936-21.288  c-22.517-3.071-46.166,4.017-63.438,21.288c-29.327,29.327-29.327,77.045,0,106.373c17.272,17.271,40.921,24.36,63.438,21.288  C338.549,419.202,313.181,343.763,357.027,299.918z"/>
<path d="M433.645,309.43c-24.216-24.215-63.619-24.215-87.835,0c-39.19,39.188-11.001,106.003,43.917,106.003  C444.886,415.433,472.665,348.451,433.645,309.43z M389.727,306.262c41.836,0,62.905,50.8,33.31,80.396  c-18.38,18.38-48.242,18.378-66.62-0.001C326.841,357.082,347.844,306.262,389.727,306.262z"/>
<path d="M506.795,445.234l-47.367-47.366c28.888-45.217,7.611-106.432-44.145-123.157c1.392-9.79,2.108-19.729,2.108-29.638  c0-34.543-8.622-68.773-24.934-98.991c-1.966-3.645-6.515-5.005-10.163-3.037c-3.646,1.968-5.005,6.519-3.037,10.163  c13.952,25.848,21.823,54.867,22.97,84.365h-80.384c-1.738-92.368-33.359-152.95-62.274-179.454  c39.56,10.696,74.953,33.8,101.137,66.908c2.57,3.249,7.287,3.801,10.536,1.23c3.249-2.569,3.8-7.287,1.23-10.536  C332.593,65.298,272.9,36.378,208.696,36.378C93.62,36.379,0,130,0,245.075c0,171.322,195.892,269.039,332.525,167.988  c27.934,26.772,70.117,30.179,101.723,9.987l47.367,47.367c6.941,6.941,18.238,6.941,25.18,0  C513.735,463.475,513.735,452.179,506.795,445.234z M314.916,318.071c4.142-20.756,6.5-42.814,6.926-65.496h80.39  c-0.242,6.296-0.775,12.585-1.62,18.81C363.598,266.425,329.729,286.579,314.916,318.071z M216.197,438.187V252.575h90.641  C304.933,350.435,265.148,430.69,216.197,438.187z M306.838,237.574h-90.641V51.962C265.383,59.495,304.943,140.245,306.838,237.574  z M201.196,51.962v185.613h-90.641C112.456,139.904,152.165,59.47,201.196,51.962z M157.739,58.196  C113.82,98.538,96.698,176.63,95.55,237.574H15.16C18.447,151.704,77.894,79.992,157.739,58.196z M15.16,252.575h80.389  c0.365,19.231,2.127,38.172,5.263,56.407c0.702,4.083,4.574,6.829,8.664,6.12c4.082-0.702,6.823-4.581,6.12-8.664  c-2.993-17.402-4.684-35.488-5.046-53.864h90.645v185.592c-32.215-4.975-61.626-41.708-78.001-98.4  c-1.149-3.979-5.31-6.273-9.287-5.124c-3.979,1.149-6.273,5.307-5.124,9.287c9.059,31.362,24.768,65.821,49.05,88.048  C77.94,410.213,18.449,338.478,15.16,252.575z M307.187,348.771c-1.041,18.935,4.438,37.698,15.452,52.954  c-19.271,14.07-40.562,24.27-63.138,30.364C282.487,411.055,297.933,378.82,307.187,348.771z M338.931,398.109  c-40.529-45.941-3.668-118.314,57.531-112.107c60.022,5.948,82.991,82.296,35.532,120.241  C404.369,428.352,363.257,425.683,338.931,398.109z M492.223,459.808l-46.023-46.022c0.685-0.64,1.357-1.289,2.017-1.947  c0,0,0.9-0.896,1.947-2.018l46.022,46.021C498.805,458.46,494.842,462.431,492.223,459.808z"/>
<g>
</g>
<g>
</g>
<g>
</g>
<g>
</g>
<g>
</g>
<g>
</g>
<g>
</g>
<g>
</g>
<g>
</g>
<g>
</g>
<g>
</g>
<g>
</g>
<g>
</g>
<g>
</g>
<g>
</g>
</svg>
